<?xml version="1.0" encoding="utf-8"?>
<!-- Generator: Adobe Illustrator 19.2.1, SVG Export Plug-In . SVG Version: 6.00 Build 0)  -->
<svg version="1.1" id="layer" xmlns="http://www.w3.org/2000/svg" xmlns:xlink="http://www.w3.org/1999/xlink" x="0px" y="0px"
	 viewBox="0 0 652 652" style="enable-background:new 0 0 652 652;" xml:space="preserve">
<style type="text/css">
	.st0{fill:#D52E2F;}
	.st1{fill:#FFFFFF;}
</style>
<path class="st0" d="M323.6,72.5h206.8c9.1,0,17.6,1.5,25.1,7c10.2,6.8,16.4,18.2,16.6,30.4c0.2,23.4,0.1,46.7,0.2,69.9l0.1,349.3
	c0,7.1-0.2,14.1-3.4,20.5c-5.5,12.1-16.7,20.5-29.8,22.2c-3.5,0.5-7,0.7-10.5,0.7l-406.9-0.1c-4.6,0-9.3-0.3-13.9-0.6
	C86.7,570,71,551.5,72.7,530.3c0-138.8,0.2-277.5,0-416.4c0-12.1,3.5-22.5,12.5-30.8c6.6-6.4,15.3-10,24.4-10.3
	c6.1-0.2,12.2-0.2,18.3-0.2h195.7L323.6,72.5L323.6,72.5z"/>
<path class="st1" d="M194.3,147h-38.8c-6.7,0-8.3,1.5-8.4,8v21c0,6.1,1.6,7.6,7.5,7.7l48.7,0.7c8.9,0.2,17.8,0,26.6,0.2
	c11.6,0.2,21.9,4.1,31.2,11.2c21.2,16.4,23,48.7,5.1,67.8c-9.8,10.6-23.6,16.6-38,16.4c-24.2,0.2-48.4,0-72.6-0.1
	c-6.9,0-8.4,1.6-8.4,8.5v21c0.1,6.4,2,8.2,8.4,8.2c22,0,43.9,0.1,65.9,0c5.9,0,11.8-0.4,17.7-1.1c21.2-2.1,40.8-12.6,54.1-29.3
	c20.9-24.6,25.8-59.1,12.5-88.6c-13.9-33.9-41.4-50.3-77.7-51.7C216.9,146.6,205.6,146.9,194.3,147 M410,146.9
	c48.5,0,87.9,38.2,87.9,85.4c0,47.2-39.4,85.4-88,85.4S322,279.5,322,232.4S361.3,146.9,410,146.9z M410,283.6
	c27.2,0,49.3-23,49.3-51.3c0-28.3-22.1-51.2-49.4-51.2c-27.2,0-49.4,23-49.4,51.2C360.5,260.7,382.7,283.6,410,283.6L410,283.6z
	 M188.1,398.1c-1.6-2-1.1-4.3-1.1-6.4v-58.1c-0.4-3.8-1.8-5.3-5.3-6.1c-1.3-0.3-2.6-0.5-3.9-0.5h-22.7c-6.1,0.1-8,2-8,8v154.7
	c0,5.9,1.6,7.6,7.5,7.7h21.6c9.4,0,10.7-1.1,10.7-10.9V452c0-3.9,0.8-7.3,3.7-10.1c4-4.1,8-8.2,12.2-12.1c3.2-3,5.5-2.8,8.4,0.7
	c2.7,3.3,5.2,6.7,7.8,10.1l39,51.1c2.7,3.5,6.2,5.7,10.8,5.7l33.3-0.1c1.8,0,3.8,0.2,4.9-2.8c-0.8-1.4-1.8-3.4-3.1-5.1l-46.6-59.9
	l-18.9-24.6c-3.1-4.1-3-6.4,0.6-10.2c0.5-0.6,1-1.1,1.5-1.6l33.9-33.6l25.9-25.7c1.4-1.5,3.8-2.6,2.8-5.7c-0.8-0.2-1.6-0.6-2.5-0.7
	c-11-0.2-21.8-0.4-32.8-0.4c-6.3,0-11.5,2.5-16,7.2c-19.3,20.2-38.9,40-58.5,59.9C191.9,395.7,190.8,397.8,188.1,398.1 M322.2,375.6
	v16.1c0.3,11.1-0.7,22.1,1.1,33.1c6.8,44,46.2,75.5,90.6,72.5c46.7-1.3,83.8-39.8,83.5-86.5c0.3-24.8,0-49.5,0-74.3v-3.3
	c-0.4-3.7-1.9-5.6-5.6-5.7c-8.9-0.2-17.7-0.2-26.6,0c-3.7,0.2-5.2,2-5.4,5.7v5.6c-0.3,25-0.4,49.9-0.8,74.9
	c-0.2,10.8-3.9,21.2-10.4,29.8c-15.9,21.2-45.9,25.6-67.2,9.8c-13.6-10.2-21.4-26.3-21-43.2c-0.2-24.8,0.2-49.5,0.4-74.3
	c0-6.9-1.6-8.4-8.5-8.5h-22.1c-6.6,0.1-8,1.6-8,8.4L322.2,375.6"/>
</svg>
