<svg xmlns="http://www.w3.org/2000/svg" xmlns:xlink="http://www.w3.org/1999/xlink" width="2156" zoomAndPan="magnify" viewBox="0 0 1616.88 555.750005" height="741" preserveAspectRatio="xMidYMid meet" version="1.0"><defs><g/></defs><path fill="#ffffff" d="M 191.152344 32.59375 C 224.160156 32.59375 251.015625 59.449219 251.015625 92.453125 L 283.8125 92.453125 C 283.8125 41.410156 242.300781 -0.203125 191.152344 -0.203125 C 140.007812 -0.203125 98.496094 41.410156 98.496094 92.453125 L 131.292969 92.453125 C 131.292969 59.449219 158.148438 32.59375 191.152344 32.59375 Z M 191.152344 32.59375 " fill-opacity="1" fill-rule="nonzero"/><path fill="#ffffff" d="M 379.753906 433.675781 L 342.75 126.691406 C 341.726562 118.078125 334.347656 111.519531 325.632812 111.519531 L 56.675781 111.519531 C 47.960938 111.519531 40.582031 118.078125 39.558594 126.691406 L 2.554688 433.675781 C 1.222656 444.746094 9.933594 454.585938 21.105469 454.585938 L 361.199219 454.585938 C 372.476562 454.585938 381.085938 444.847656 379.753906 433.675781 Z M 235.332031 202.640625 C 246.09375 202.640625 254.910156 211.457031 254.910156 222.21875 C 254.910156 232.980469 246.09375 241.796875 235.332031 241.796875 C 224.570312 241.796875 215.753906 232.980469 215.753906 222.21875 C 215.753906 211.457031 224.464844 202.640625 235.332031 202.640625 Z M 147.078125 202.640625 C 157.839844 202.640625 166.65625 211.457031 166.65625 222.21875 C 166.65625 232.980469 157.839844 241.796875 147.078125 241.796875 C 136.316406 241.796875 127.5 232.980469 127.5 222.21875 C 127.5 211.457031 136.214844 202.640625 147.078125 202.640625 Z M 191.152344 385.605469 C 134.675781 385.605469 88.652344 339.683594 88.652344 283.105469 L 116.328125 283.105469 C 116.328125 324.308594 149.847656 357.929688 191.152344 357.929688 C 232.460938 357.929688 265.980469 324.410156 265.980469 283.105469 L 293.652344 283.105469 C 293.652344 339.582031 247.632812 385.605469 191.152344 385.605469 Z M 191.152344 385.605469 " fill-opacity="1" fill-rule="nonzero"/><g fill="#ffffff" fill-opacity="1"><g transform="translate(455.519544, 360.942066)"><g><path d="M 126.359375 -168.796875 L 166.140625 -168.796875 L 102.484375 0 L 68 0 L 1.921875 -168.796875 L 42.203125 -168.796875 L 84.875 -49.4375 Z M 126.359375 -168.796875 "/></g></g></g><g fill="#ffffff" fill-opacity="1"><g transform="translate(624.756467, 360.942066)"><g><path d="M 123.21875 -130.453125 L 149.5 -130.453125 L 149.5 -0.234375 L 121.78125 -0.234375 L 118.875 -11.8125 C 113.25 -6.988281 106.859375 -3.210938 99.703125 -0.484375 C 92.554688 2.242188 84.882812 3.609375 76.6875 3.609375 C 63.664062 3.609375 52.007812 0.597656 41.71875 -5.421875 C 31.425781 -11.453125 23.304688 -19.648438 17.359375 -30.015625 C 11.410156 -40.390625 8.4375 -52.164062 8.4375 -65.34375 C 8.4375 -78.363281 11.410156 -90.054688 17.359375 -100.421875 C 23.304688 -110.796875 31.425781 -118.957031 41.71875 -124.90625 C 52.007812 -130.851562 63.664062 -133.828125 76.6875 -133.828125 C 85.039062 -133.828125 92.832031 -132.421875 100.0625 -129.609375 C 107.300781 -126.796875 113.734375 -122.898438 119.359375 -117.921875 Z M 79.578125 -29.65625 C 86.328125 -29.65625 92.394531 -31.179688 97.78125 -34.234375 C 103.164062 -37.296875 107.382812 -41.519531 110.4375 -46.90625 C 113.5 -52.289062 115.03125 -58.4375 115.03125 -65.34375 C 115.03125 -72.101562 113.5 -78.175781 110.4375 -83.5625 C 107.382812 -88.945312 103.164062 -93.203125 97.78125 -96.328125 C 92.394531 -99.460938 86.328125 -101.03125 79.578125 -101.03125 C 72.660156 -101.03125 66.550781 -99.460938 61.25 -96.328125 C 55.945312 -93.203125 51.765625 -88.945312 48.703125 -83.5625 C 45.648438 -78.175781 44.125 -72.101562 44.125 -65.34375 C 44.125 -58.4375 45.648438 -52.328125 48.703125 -47.015625 C 51.765625 -41.710938 55.945312 -37.492188 61.25 -34.359375 C 66.550781 -31.222656 72.660156 -29.65625 79.578125 -29.65625 Z M 79.578125 -29.65625 "/></g></g></g><g fill="#ffffff" fill-opacity="1"><g transform="translate(791.100435, 360.942066)"><g><path d="M 16.875 0 L 16.875 -177.234375 L 52.09375 -177.234375 L 52.09375 0 Z M 16.875 0 "/></g></g></g><g fill="#ffffff" fill-opacity="1"><g transform="translate(860.048792, 360.942066)"><g><path d="M 75.234375 3.375 C 62.367188 3.375 51.035156 1.046875 41.234375 -3.609375 C 31.429688 -8.273438 23.753906 -14.945312 18.203125 -23.625 C 12.660156 -32.3125 9.890625 -42.679688 9.890625 -54.734375 L 46.78125 -54.734375 C 46.78125 -46.535156 49.632812 -40.46875 55.34375 -36.53125 C 61.050781 -32.59375 67.601562 -30.625 75 -30.625 C 79.65625 -30.625 84.03125 -31.382812 88.125 -32.90625 C 92.226562 -34.4375 95.609375 -36.6875 98.265625 -39.65625 C 100.921875 -42.632812 102.25 -46.210938 102.25 -50.390625 C 102.25 -54.734375 100.71875 -58.148438 97.65625 -60.640625 C 94.601562 -63.140625 90.503906 -65.191406 85.359375 -66.796875 C 80.210938 -68.398438 74.585938 -69.925781 68.484375 -71.375 C 62.210938 -72.820312 55.78125 -74.585938 49.1875 -76.671875 C 42.601562 -78.765625 36.492188 -81.539062 30.859375 -85 C 25.234375 -88.457031 20.734375 -93.117188 17.359375 -98.984375 C 13.984375 -104.859375 12.296875 -112.296875 12.296875 -121.296875 C 12.296875 -137.535156 17.800781 -150.035156 28.8125 -158.796875 C 39.820312 -167.554688 54.734375 -171.9375 73.546875 -171.9375 C 92.835938 -171.9375 107.785156 -167.070312 118.390625 -157.34375 C 129.003906 -147.613281 134.3125 -134.390625 134.3125 -117.671875 L 98.140625 -117.671875 C 98.140625 -124.910156 95.566406 -130.253906 90.421875 -133.703125 C 85.285156 -137.160156 79.335938 -138.890625 72.578125 -138.890625 C 66.628906 -138.890625 61.160156 -137.601562 56.171875 -135.03125 C 51.191406 -132.46875 48.703125 -128.453125 48.703125 -122.984375 C 48.703125 -118.960938 50.1875 -115.785156 53.15625 -113.453125 C 56.132812 -111.117188 60.078125 -109.1875 64.984375 -107.65625 C 69.890625 -106.132812 75.316406 -104.648438 81.265625 -103.203125 C 87.691406 -101.597656 94.28125 -99.707031 101.03125 -97.53125 C 107.789062 -95.363281 114.0625 -92.429688 119.84375 -88.734375 C 125.632812 -85.035156 130.335938 -80.128906 133.953125 -74.015625 C 137.566406 -67.910156 139.375 -60.195312 139.375 -50.875 C 139.375 -38.65625 136.441406 -28.523438 130.578125 -20.484375 C 124.710938 -12.453125 116.957031 -6.46875 107.3125 -2.53125 C 97.664062 1.40625 86.972656 3.375 75.234375 3.375 Z M 75.234375 3.375 "/></g></g></g><g fill="#ffffff" fill-opacity="1"><g transform="translate(1009.276225, 360.942066)"><g><path d="M 91.390625 -133.34375 C 106.179688 -133.34375 117.835938 -128.441406 126.359375 -118.640625 C 134.878906 -108.835938 139.140625 -95.65625 139.140625 -79.09375 L 139.140625 0 L 103.9375 0 L 103.9375 -73.3125 C 103.9375 -82.957031 102.164062 -90.226562 98.625 -95.125 C 95.09375 -100.03125 89.304688 -102.484375 81.265625 -102.484375 C 72.585938 -102.484375 65.554688 -99.46875 60.171875 -93.4375 C 54.785156 -87.414062 52.09375 -79.097656 52.09375 -68.484375 L 52.09375 0 L 16.875 0 L 16.875 -177.234375 L 52.09375 -177.234375 L 52.09375 -118.15625 C 57.070312 -122.820312 62.9375 -126.519531 69.6875 -129.25 C 76.4375 -131.976562 83.671875 -133.34375 91.390625 -133.34375 Z M 91.390625 -133.34375 "/></g></g></g><g fill="#ffffff" fill-opacity="1"><g transform="translate(1163.807364, 360.942066)"><g><path d="M 78.859375 3.609375 C 65.347656 3.609375 53.285156 0.597656 42.671875 -5.421875 C 32.066406 -11.453125 23.707031 -19.648438 17.59375 -30.015625 C 11.488281 -40.390625 8.4375 -52.085938 8.4375 -65.109375 C 8.4375 -78.285156 11.488281 -90.054688 17.59375 -100.421875 C 23.707031 -110.796875 32.066406 -118.957031 42.671875 -124.90625 C 53.285156 -130.851562 65.347656 -133.828125 78.859375 -133.828125 C 92.203125 -133.828125 104.175781 -130.851562 114.78125 -124.90625 C 125.394531 -118.957031 133.753906 -110.796875 139.859375 -100.421875 C 145.972656 -90.054688 149.03125 -78.285156 149.03125 -65.109375 C 149.03125 -52.085938 145.972656 -40.390625 139.859375 -30.015625 C 133.753906 -19.648438 125.394531 -11.453125 114.78125 -5.421875 C 104.175781 0.597656 92.203125 3.609375 78.859375 3.609375 Z M 78.859375 -29.421875 C 88.984375 -29.421875 97.257812 -32.710938 103.6875 -39.296875 C 110.125 -45.890625 113.34375 -54.492188 113.34375 -65.109375 C 113.34375 -75.710938 110.125 -84.3125 103.6875 -90.90625 C 97.257812 -97.5 88.984375 -100.796875 78.859375 -100.796875 C 68.566406 -100.796875 60.203125 -97.5 53.765625 -90.90625 C 47.335938 -84.3125 44.125 -75.710938 44.125 -65.109375 C 44.125 -54.492188 47.335938 -45.890625 53.765625 -39.296875 C 60.203125 -32.710938 68.566406 -29.421875 78.859375 -29.421875 Z M 78.859375 -29.421875 "/></g></g></g><g fill="#ffffff" fill-opacity="1"><g transform="translate(1321.231459, 360.942066)"><g><path d="M 88.015625 -133.828125 C 101.035156 -133.828125 112.691406 -130.851562 122.984375 -124.90625 C 133.273438 -118.957031 141.394531 -110.796875 147.34375 -100.421875 C 153.289062 -90.054688 156.265625 -78.285156 156.265625 -65.109375 C 156.265625 -51.921875 153.289062 -40.144531 147.34375 -29.78125 C 141.394531 -19.414062 133.273438 -11.21875 122.984375 -5.1875 C 112.691406 0.84375 101.035156 3.859375 88.015625 3.859375 C 81.265625 3.859375 74.832031 2.894531 68.71875 0.96875 C 62.613281 -0.957031 57.070312 -3.613281 52.09375 -7 L 52.09375 47.015625 L 16.875 47.015625 L 16.875 -130.21875 L 40.265625 -130.21875 L 46.296875 -118.40625 C 51.765625 -123.226562 58.035156 -127.003906 65.109375 -129.734375 C 72.179688 -132.460938 79.816406 -133.828125 88.015625 -133.828125 Z M 85.125 -29.421875 C 91.875 -29.421875 97.941406 -30.988281 103.328125 -34.125 C 108.710938 -37.257812 112.929688 -41.519531 115.984375 -46.90625 C 119.035156 -52.289062 120.5625 -58.359375 120.5625 -65.109375 C 120.5625 -71.859375 119.035156 -77.925781 115.984375 -83.3125 C 112.929688 -88.695312 108.710938 -92.957031 103.328125 -96.09375 C 97.941406 -99.226562 91.875 -100.796875 85.125 -100.796875 C 78.207031 -100.796875 72.097656 -99.226562 66.796875 -96.09375 C 61.492188 -92.957031 57.3125 -88.695312 54.25 -83.3125 C 51.195312 -77.925781 49.671875 -71.859375 49.671875 -65.109375 C 49.671875 -58.359375 51.195312 -52.289062 54.25 -46.90625 C 57.3125 -41.519531 61.492188 -37.257812 66.796875 -34.125 C 72.097656 -30.988281 78.207031 -29.421875 85.125 -29.421875 Z M 85.125 -29.421875 "/></g></g></g></svg>